# AST/ASF file generated using VICON BodyLanguage
# -----------------------------------------------
:version 1.10
:name VICON
:units
  mass 1.0
  length 0.45
  angle deg
:documentation
   .ast/.asf automatically generated from VICON data using
   VICON BodyBuilder and BodyLanguage model FoxedUp or BRILLIANT.MOD
:root
   order TX TY TZ RX RY RZ
   axis XYZ
   position 0 0 0  
   orientation 0 0 0 
:bonedata
  begin
     id 1 
     name lhipjoint
     direction 0.661853 -0.702389 0.261917 
     length 2.64193 
     axis 0 0 0  XYZ
  end
  begin
     id 2 
     name lfemur
     direction 0.34202 -0.939693 0  
     length 7.01722  
     axis 0 0 20  XYZ
    dof rx ry rz
    limits (-160.0 20.0)
           (-70.0 70.0)
           (-60.0 70.0)
  end
  begin
     id 3 
     name ltibia
     direction 0.34202 -0.939693 0   
     length 8.25008   
     axis 0 0 20   XYZ
    dof rx
    limits (-10.0 170.0)
  end
  begin
     id 4 
     name lfoot
     direction 0.0709916 -0.195048 0.978221   
     length 2.31941   
     axis -90 7.62852e-016 20   XYZ
    dof rx rz
    limits (-45.0 90.0)
           (-70.0 20.0)
  end
  begin
     id 5 
     name ltoes
     direction 1.53586e-011 -4.22017e-011 1   
     length 1.16486   
     axis -90 7.62852e-016 20   XYZ
    dof rx
    limits (-90.0 20.0)
  end
  begin
     id 6 
     name rhipjoint
     direction -0.638185 -0.721362 0.268992   
     length 2.57244  
     axis 0 0 0  XYZ 
  end
  begin
     id 7 
     name rfemur
     direction -0.34202 -0.939693 0   
     length 7.07017   
     axis 0 0 -20   XYZ
    dof rx ry rz
    limits (-160.0 20.0)
           (-70.0 70.0)
           (-70.0 60.0)
  end
  begin
     id 8 
     name rtibia
     direction -0.34202 -0.939693 0   
     length 8.20386   
     axis 0 0 -20   XYZ
    dof rx
    limits (-10.0 170.0)
 end
 begin
     id 9 
     name rfoot
     direction -0.0822429 -0.225961 0.970658   
     length 2.32215  
     axis -90 -7.62852e-016 -20   XYZ
    dof rx rz
    limits (-45.0 90.0)
           (-20.0 70.0)
  end
  begin
     id 10 
     name rtoes
     direction -1.53597e-011 -4.21689e-011 1   
     length 1.16333   
     axis -90 -7.62852e-016 -20   XYZ
    dof rx
    limits (-90.0 20.0)
  end
  begin
     id 11 
     name lowerback
     direction -0.0131557 0.998589 -0.0514484   
     length 2.14993   
     axis 0 0 0   XYZ
    dof rx ry rz
    limits (-20.0 45.0)
           (-30.0 30.0)
           (-30.0 30.0)
  end
  begin
     id 12 
     name upperback
     direction -0.000776481 0.999993 0.00352685   
     length 2.15301   
     axis 0 0 0   XYZ
    dof rx ry rz
    limits (-20.0 45.0)
           (-30.0 30.0)
           (-30.0 30.0)
  end
  begin
     id 13 
     name thorax
     direction 0.00438186 0.999609 0.0276143   
     length 2.15424   
     axis 0 0 0   XYZ
    dof rx ry rz
    limits (-20.0 45.0)
           (-30.0 30.0)
           (-30.0 30.0)
  end
  begin
     id 14 
     name lowerneck
     direction -0.0488006 0.998094 0.0377807   
     length 1.90481   
     axis 0 0 0   XYZ
    dof rx ry rz
    limits (-20.0 45.0)
           (-30.0 30.0)
           (-30.0 30.0)
  end
  begin
     id 15 
     name upperneck
     direction 0.0443769 0.990702 -0.12861   
     length 1.91305   
     axis 0 0 0   XYZ
    dof rx ry rz
    limits (-20.0 45.0)
           (-30.0 30.0)
           (-30.0 30.0)
  end
  begin
     id 16
     name head
     direction 0.0165599 0.998647 -0.0492982  
     length 1.92369  
     axis 0 0 0   XYZ
    dof rx ry rz
    limits (-20.0 45.0)
           (-30.0 30.0)
           (-30.0 30.0)
  end
  begin
     id 17 
     name lclavicle
     direction 0.911936 0.410197 -0.0105506  
     length 3.52622  
     axis 0 0 0   XYZ
    dof ry rz
    limits (-20.0 10.0)
           (0.0 20.0)
  end
  begin
     id 18 
     name lhumerus
     direction 1 -4.48974e-011 -2.48591e-028   
     length 5.47651   
     axis 180 -30 -90   XYZ
    dof rx ry rz
    limits (-60.0 90.0)
           (-90.0 90.0)
           (-90.0 90.0)
  end
  begin
     id 19
     name lradius
     direction 1 -4.48938e-011 -4.40099e-027   
     length 3.09058   
     axis 180 -30 -90   XYZ
    dof rx
    limits (-10.0 170.0)
  end
  begin
     id 20
     name lwrist
     direction 1 -4.49042e-011 -2.99852e-027   
     length 1.54529   
     axis 1.95339e-015 90 90   XYZ
    dof ry
    limits (-180.0 0.0)
 end
  begin
     id 21 
     name lhand
     direction 1 -4.48815e-011 -5.98193e-027   
     length 0.771611   
     axis 3.82337e-015 90 90   XYZ
    dof rx rz
    limits (-90.0 90.0)
           (-45.0 45.0)
  end
  begin
     id 22 
     name lfingers
     direction 1 -4.49034e-011 -1.1993e-026   
     length 0.622093   
     axis 7.64668e-015 90 90   XYZ
    dof rx
    limits (0.0 90.0)
  end
  begin
     id 23
     name lthumb
     direction 0.707107 -6.34867e-011 0.707107   
     length 0.893204   
     axis -90 45 -1.62303e-014   XYZ
    dof rx rz
    limits (-45.0 45.0)
           (-45.0 45.0)
  end
  begin
     id 24 
     name rclavicle
     direction -0.93442 0.355634 -0.0195692   
     length 3.62463  
     axis 0 0 0   XYZ 
    dof ry rz
    limits (-10.0 20.0)
           (-20.0 0.0)
  end
  begin
     id 25 
     name rhumerus
     direction -1 -4.48957e-011 -1.19147e-027  
     length 5.14182   
     axis 180 30 90   XYZ
    dof rx ry rz
    limits (-90.0 60.0)
           (-90.0 90.0)
           (-90.0 90.0)
  end
  begin
     id 26 
     name rradius
     direction -1 -4.48952e-011 -3.81062e-027   
     length 3.35565   
     axis 180 30 90   XYZ
    dof rx
    limits (-10.0 170.0)
  end
  begin
     id 27 
     name rwrist
     direction -1 -4.48973e-011 -2.99621e-027   
     length 1.67782   
     axis 1.95339e-015 -90 -90   XYZ
    dof ry
    limits (-180.0 0.0)
  end
  begin
     id 28
     name rhand
     direction -1 -4.48895e-011 -5.98727e-027   
     length 0.801042   
     axis 3.82337e-015 -90 -90   XYZ
    dof rx rz
    limits (-90.0 90.0)
           (-45.0 45.0)
  end
  begin
     id 29
     name rfingers
     direction -1 -4.49065e-011 -1.19972e-026   
     length 0.645821   
     axis 7.64668e-015 -90 -90   XYZ
    dof rx
    limits (0.0 90.0)
  end
  begin
     id 30
     name rthumb
     direction -0.707107 -6.34957e-011 0.707107   
     length 0.927273   
     axis -90 -45 1.62303e-014   XYZ
    dof rx rz
    limits (-45.0 45.0)
           (-45.0 45.0)
  end
:hierarchy
  begin
    root lhipjoint rhipjoint lowerback
    lhipjoint lfemur
    lfemur ltibia
    ltibia lfoot
    lfoot ltoes
    rhipjoint rfemur
    rfemur rtibia
    rtibia rfoot
    rfoot rtoes
    lowerback upperback
    upperback thorax
    thorax lowerneck lclavicle rclavicle
    lowerneck upperneck
    upperneck head
    lclavicle lhumerus
    lhumerus lradius
    lradius lwrist
    lwrist lhand lthumb
    lhand lfingers
    rclavicle rhumerus
    rhumerus rradius
    rradius rwrist
    rwrist rhand rthumb
    rhand rfingers
  end

#!OML:ASF E:\Style4\Style4.ASF
:FULLY-SPECIFIED
:DEGREES
293
root -0.251535 17.7099 -2.35659 -1.62864 -0.630769 1.96188
lowerback 7.26955 2.1018 0.593741
upperback 3.5176 2.82561 -0.52223
thorax -0.387726 1.42349 -1.0785
lowerneck -1.94112 -4.99139 -6.57506
upperneck 5.30381 -6.70031 5.2649
head 2.49504 -3.3435 2.66647
rclavicle -3.76448e-014 -2.5842e-015
rhumerus 43.7026 59.8786 -21.8331
rradius 106.291
rwrist -37.2576
rhand -4.34537 22.8603
rfingers 7.12502
rthumb 21.4223 -5.97537
lclavicle -3.76448e-014 -2.5842e-015
lhumerus 60.2258 -46.641 16.4253
lradius 81.4586
lwrist 14.1362
lhand -15.2846 17.3843
lfingers 7.12502
lthumb 10.8903 47.0819
rfemur -13.5781 0.232797 17.1245
rtibia 34.1484
rfoot -17.7039 -14.3601
rtoes -13.6893
lfemur -11.1774 -2.49843 -20.1626
ltibia 31.3885
lfoot -18.3577 8.28262
ltoes -15.7047
294
root -0.250363 17.7097 -2.35495 -1.65394 -0.804564 1.99315
lowerback 7.34343 2.07308 0.689955
upperback 3.48515 2.79285 -0.598352
thorax -0.454149 1.4082 -1.21191
lowerneck -1.8963 -4.92285 -6.44461
upperneck 5.31959 -6.61729 5.27261
head 2.48081 -3.3 2.64928
rclavicle 3.05383e-014 -5.56597e-015
rhumerus 43.1968 58.5091 -23.452
rradius 107.266
rwrist -38.4994
rhand -4.25603 22.8019
rfingers 7.12502
rthumb 21.5081 -6.02393
lclavicle 3.05383e-014 -5.56597e-015
lhumerus 61.3856 -47.4392 14.1881
lradius 80.9703
lwrist 13.5619
lhand -14.4053 16.913
lfingers 7.12502
lthumb 11.7383 46.5641
rfemur -13.5681 0.322256 17.0901
rtibia 34.1486
rfoot -17.709 -14.2572
rtoes -13.6322
lfemur -11.1003 -2.4191 -20.2019
ltibia 31.3658
lfoot -18.3974 8.34917
ltoes -15.691
295
root -0.248223 17.7119 -2.35209 -1.65804 -0.920988 1.93035
lowerback 7.40528 2.01667 0.874253
upperback 3.45788 2.72968 -0.635344
thorax -0.5074 1.37832 -1.35145
lowerneck -1.84922 -4.84877 -6.3078
upperneck 5.25961 -6.52335 5.25665
head 2.43882 -3.25137 2.62358
rclavicle 1.06598e-014 -3.97569e-015
rhumerus 42.5581 56.9053 -25.2899
rradius 107.939
rwrist -39.617
rhand -3.84574 22.835
rfingers 7.12502
rthumb 21.9021 -5.94528
lclavicle 1.06598e-014 -3.97569e-015
lhumerus 62.727 -48.2434 11.7081
lradius 80.781
lwrist 13.0357
lhand -13.8191 16.4851
lfingers 7.12502
lthumb 12.3035 46.1032
rfemur -13.5701 0.372486 17.153
rtibia 34.1606
rfoot -17.7004 -14.1742
rtoes -13.5823
lfemur -11.0442 -2.41558 -20.1428
ltibia 31.3313
lfoot -18.4206 8.44643
ltoes -15.7479
296
root -0.247035 17.7131 -2.35021 -1.65148 -1.0369 1.92972
lowerback 7.47433 1.9734 0.92809
upperback 3.43356 2.67578 -0.64998
thorax -0.568953 1.35139 -1.39596
lowerneck -1.94458 -4.79948 -6.20162
upperneck 5.30362 -6.45522 5.2134
head 2.45974 -3.21509 2.58991
rclavicle -2.88238e-015 5.36719e-015
rhumerus 41.935 55.3587 -26.9895
rradius 108.552
rwrist -41.2453
rhand -4.10156 22.7174
rfingers 7.12502
rthumb 21.6564 -6.09144
lclavicle -2.88238e-015 5.36719e-015
lhumerus 64.1563 -49.0694 9.12159
lradius 80.8599
lwrist 12.338
lhand -13.3754 15.9755
lfingers 7.12502
lthumb 12.7313 45.5673
rfemur -13.5722 0.413392 17.1569
rtibia 34.1726
rfoot -17.6797 -14.0728
rtoes -13.4627
lfemur -11.008 -2.41452 -20.1487
ltibia 31.2964
lfoot -18.4664 8.525
ltoes -15.648
297
root -0.246068 17.718 -2.34721 -1.61713 -1.12878 1.92723
lowerback 7.53577 1.92741 0.895841
upperback 3.37367 2.61329 -0.601595
thorax -0.670353 1.31829 -1.32737
lowerneck -1.94156 -4.74935 -6.13361
upperneck 5.2808 -6.38537 5.12875
head 2.44001 -3.18093 2.55161
rclavicle -3.90115e-015 3.57812e-015
rhumerus 41.3587 53.886 -28.5649
rradius 108.996
rwrist -43.1931
rhand -4.77624 22.6062
rfingers 7.12502
rthumb 21.0084 -6.27591
lclavicle -3.90115e-015 3.57812e-015
lhumerus 65.6047 -49.9128 6.67133
lradius 81.1284
lwrist 11.6944
lhand -12.8156 15.2224
lfingers 7.12502
lthumb 13.2709 44.7799
rfemur -13.5594 0.422086 17.1626
rtibia 34.1515
rfoot -17.6592 -13.844
rtoes -12.5345
lfemur -11.0133 -2.38526 -20.1491
ltibia 31.2692
lfoot -18.4933 8.56332
ltoes -15.6068
298
root -0.244156 17.7202 -2.34451 -1.58155 -1.23162 1.89598
lowerback 7.62108 1.87658 0.82816
upperback 3.30522 2.54291 -0.489448
thorax -0.798336 1.28036 -1.17374
lowerneck -1.94516 -4.6988 -6.08568
upperneck 5.27653 -6.30797 4.93429
head 2.42319 -3.14589 2.48008
rclavicle -1.26477e-014 -3.57812e-015
rhumerus 40.8808 52.3307 -30.0434
rradius 109.101
rwrist -44.852
rhand -5.28211 22.8359
rfingers 7.12502
rthumb 20.5223 -6.09936
lclavicle -1.26477e-014 -3.57812e-015
lhumerus 67.098 -50.7242 4.2601
lradius 81.6786
lwrist 11.2686
lhand -12.2658 14.6785
lfingers 7.12502
lthumb 13.8009 44.2007
rfemur -13.5911 0.435202 17.1891
rtibia 34.104
rfoot -17.6608 -13.7389
rtoes -12.4622
lfemur -11.0116 -2.37223 -20.1242
ltibia 31.249
lfoot -18.5192 8.63215
ltoes -15.3593
